<svg viewBox="0 0 1024 1024" xmlns="http://www.w3.org/2000/svg"><path d="M495.03 785c.82.82 2.068.547 2.97 1.222 1.664 1.293 2.808 3.125 4.813 3.965 2.717 1.13 5.872 1.796 9.18 1.812h.008c6.622 0 12.62-2.675 16.97-7.002l160.03-160c4.352-4.35 7.043-10.36 7.043-17 0-13.277-10.764-24.04-24.042-24.04-6.638 0-12.648 2.69-17 7.04L536 710.062V64c0-13.255-10.744-24-24-24s-24 10.745-24 24v646.03L368.97 591c-4.34-4.302-10.314-6.96-16.91-6.96-13.265 0-24.02 10.754-24.02 24.02 0 6.61 2.672 12.598 6.993 16.94zM960 936H64c-13.255 0-24 10.745-24 24s10.745 24 24 24h896c13.255 0 24-10.745 24-24s-10.745-24-24-24z"/></svg>